<?xml version="1.0" encoding="utf-8"?>
<!-- Generator: Adobe Illustrator 19.0.1, SVG Export Plug-In . SVG Version: 6.00 Build 0)  -->
<svg version="1.1" id="Capa_1" xmlns="http://www.w3.org/2000/svg" xmlns:xlink="http://www.w3.org/1999/xlink" x="0px" y="0px"
	 viewBox="750 141 2111 512" style="enable-background:new 750 141 2111 512;" xml:space="preserve">
<style type="text/css">
	.st0{fill:#006DF0;}
	.st1{enable-background:new    ;}
	.st2{fill:#FFDA44;}
</style>
<g>
	<g id="_x33__13_">
		<g>
			<path class="st0" d="M1241,346l-96,64c0-19.4-8.8-36.6-22.5-48.4C1155,342,1177,306.7,1177,266c0-61.9-50.1-112-112-112
				s-112,50.1-112,112c0,31.4,13,59.7,33.8,80h-58.7c15.3-17,24.9-39.3,24.9-64c0-53-43-96-96-96s-96,43-96,96
				c0,28.9,13.1,54.6,33.3,72.2C774.6,365.1,761,385.8,761,410v128c0,35.3,28.7,64,64,64h256c35.3,0,64-28.7,64-64l96,64
				c17.7,0,32-14.3,32-32V378C1273,360.3,1258.7,346,1241,346z M857,346c-35.3,0-64-28.7-64-64s28.7-64,64-64s64,28.7,64,64
				S892.3,346,857,346z M1065,346.2c-44.3,0-80.2-35.9-80.2-80.2s35.9-80.2,80.2-80.2c44.3,0,80.2,35.9,80.2,80.2
				S1109.3,346.2,1065,346.2z"/>
		</g>
	</g>
</g>
<g class="st1">
	<path class="st0" d="M1296.5,212.8h13c2.6,8.8,6.4,13.2,11.6,13.2h259.1c6.7,0,10.1-4.4,10.1-13.2h14.2v111.7h-21
		c-0.6-56.2-30.6-84.4-90.1-84.4h-16v301.3c0,30.2,15,45.7,45.1,46.4V602h-145v-14.1c17.8-0.2,29.7-3.6,35.9-10.1
		c6.1-6.5,9.2-18.6,9.2-36.4V240.2h-20.5c-54.7,0-83,28.1-84.8,84.4h-20.8V212.8z"/>
	<path class="st0" d="M1617.6,226h104.9v14.1c-7.7,0.2-11.6,3-11.6,8.5c0,2.9,1.1,7.6,3.3,14.1l94,268.7l60.2-151.4
		c16.6-41.9,24.9-75.4,24.9-100.5c0-13.1-3.3-22.9-9.9-29.4c-6.6-6.5-18.9-9.8-36.9-10V226h133.1v14.1c-21.5,0.2-42,24.4-61.4,72.6
		l-120.9,302.2h-17.5L1673,307.8c-15.6-44.7-34.1-67.2-55.4-67.6V226z"/>
	<path class="st0" d="M1998.8,226h145v14.1c-17.9,0.4-29.8,3.7-35.9,9.9c-6.1,6.2-9.1,18.4-9.1,36.5v301.3h38.6
		c60,0,95.6-31.2,106.9-93.5h21.3l-25.5,121.4h-13.6c-0.2-9.2-4.5-13.8-12.8-13.8h-214.9v-14.1c17.6-0.2,29.5-3.6,35.7-10.1
		c6.2-6.5,9.3-18.6,9.3-36.4V286.6c0-18.9-3.4-31.3-10.1-37.1c-6.7-5.8-18.4-9-35-9.3V226z"/>
</g>
<path class="st2" d="M2446.3,549.3h-11.9v-55.1c0-6.5-6.8-11.8-15.2-11.8h-13.4l6.6-106.3c5.3-1.3,9.5-4.8,10.5-9.3l15.8-69.8
	c1.1-4.9-1.8-9.8-7.3-12.3l-30.5-13.8v-30.4c0-14.8-15.4-26.9-34.4-26.9s-34.4,12-34.4,26.9v30.4l-30.5,13.8
	c-5.5,2.5-8.4,7.4-7.3,12.3l15.8,69.8c1,4.5,5.2,8,10.5,9.3l6.6,106.3h-13.6c-8.4,0-15.2,5.3-15.2,11.8v55.1h-11.9
	c-8.4,0-15.2,5.3-15.2,11.8v40.5c0,6.5,6.8,11.8,15.2,11.8h159.8c8.4,0,15.2-5.3,15.2-11.8v-40.4
	C2461.5,554.6,2454.7,549.3,2446.3,549.3L2446.3,549.3z M2343,506.1h46.8h14.3v9.8h-75.4v-9.8H2343z M2362.4,240.5
	c0-1.8,1.8-3.2,4.1-3.2c2.2,0,4.1,1.4,4.1,3.2v25.4h-8.2V240.5L2362.4,240.5z M2351.3,289.5h30.3L2407,301l-11.8,51.9h-57.6
	l-11.8-51.9L2351.3,289.5L2351.3,289.5z M2350.9,376.6h31l-6.6,105.8h-17.9L2350.9,376.6L2350.9,376.6z M2328.7,539.5h75.4v9.8
	h-75.4V539.5L2328.7,539.5z M2431.2,589.8h-129.5V573h11.9h105.7h11.9V589.8z"/>
<g class="st1">
	<path class="st0" d="M2506,518.3c1.6,25.5,8.9,45.3,22.1,59.4c13.1,14.1,28.9,21.2,47.3,21.2c15.2,0,27.7-4.6,37.4-13.8
		c9.7-9.2,14.5-20.9,14.5-35c0-12.5-3.7-23.1-11-31.7c-7.5-8.4-22.2-19.5-44.2-33.2c-15.6-9.8-29.8-19-42.7-27.5
		c-12.8-8.5-21.7-17.2-26.7-26c-5.1-8.8-7.7-17.8-7.7-27c0-19,8.8-36,26.5-50.9c17.7-14.9,41.2-22.3,70.4-22.3
		c18,0,37.4,3.9,58.1,11.8v77h-21.3c-0.2-21.8-6.3-39.2-18.4-52.3c-12.1-13.1-25.9-19.7-41.5-19.7c-11.1,0-19.7,3.5-25.9,10.4
		c-6.2,7-9.3,15.1-9.3,24.5c0,10.6,3.6,19.7,10.7,27.3c6.9,7.8,20.8,18.2,41.8,31.2c36,22.5,58.5,38.4,67.6,47.6
		c9.1,9.4,13.6,21.9,13.6,37.3c0,24.5-10.9,45.8-32.8,63.8c-21.8,18-47,27-75.4,27c-21.1,0-45.6-5.9-73.2-17.6v-81.4H2506z"/>
	<path class="st0" d="M2800.3,247v15.3c-12.5,2.9-18.7,16.9-18.7,41.7c0,16.9,1.4,28.6,4.3,35.3c2.9,6.7,7.9,12.2,15.1,16.5
		c7.2,4.3,16.8,6.5,28.9,6.5h24.6v13.2H2782v188.7c0,6.1,1.2,10.7,3.7,13.8c2.5,3.1,6.2,4.7,11.1,4.7c9.7,0,24.1-7.8,43.3-23.5
		c2.2-1.8,3.9-3,5-3.8v17c-33.7,30-60.5,45-80.6,45c-9.3,0-16.3-3.6-21-10.7c-4.7-7.2-7-17.8-7-31.9V375.4h-45.4v-13.2
		c17.4,0,29.7-3.4,37.1-10.3c7.3-6.9,11-18.9,11-36.2v-44.4L2800.3,247z"/>
</g>
</svg>
