<?xml version="1.0" encoding="iso-8859-1"?>
<!-- Generator: Adobe Illustrator 16.0.0, SVG Export Plug-In . SVG Version: 6.00 Build 0)  -->
<!DOCTYPE svg PUBLIC "-//W3C//DTD SVG 1.1//EN" "http://www.w3.org/Graphics/SVG/1.1/DTD/svg11.dtd">
<svg xmlns="http://www.w3.org/2000/svg" xmlns:xlink="http://www.w3.org/1999/xlink" version="1.1" id="Capa_1" x="0px" y="0px" width="512px" height="512px" viewBox="0 0 83.818 83.818" style="enable-background:new 0 0 83.818 83.818;" xml:space="preserve">
<g>
	<g>
		<path d="M7.216,65.423c-0.141-0.207-0.273-0.421-0.411-0.631C6.856,65.057,7.002,65.275,7.216,65.423z" fill="#933EC5"/>
		<path d="M73.019,28.695h-2.5v32.5c0,0.351-0.184,0.676-0.484,0.856c-0.158,0.095-0.336,0.144-0.516,0.144    c-0.16,0-0.321-0.039-0.469-0.117c-0.188-0.102-18.804-9.838-27.063-2.158c-0.072,0.311-0.282,0.574-0.583,0.699    c-0.374,0.156-0.803,0.068-1.09-0.217c-8.134-8.135-27.132,1.824-27.324,1.926c-0.147,0.078-0.308,0.117-0.469,0.117    c-0.179,0-0.357-0.049-0.515-0.144c-0.301-0.181-0.485-0.507-0.485-0.856v-32.75H8.77v34.917h64.25V28.695H73.019z" fill="#933EC5"/>
		<path d="M6.769,64.611V27.695c0-0.553,0.448-1,1-1h3.75v-4.5c0-2.522,6.543-4.506,12.033-5.727    c0.142-0.031,0.282-0.026,0.416,0.001c2.399-7.123,9.128-12.274,17.051-12.274c7.839,0,14.507,5.048,16.97,12.057    c0.158-0.048,0.324-0.07,0.497-0.033c5.489,1.221,12.032,3.204,12.032,5.727v4.75h3.5c0.553,0,1,0.447,1,1v36.917    c0,0.553-0.447,1-1,1H7.769c-0.209,0-0.393-0.079-0.553-0.189c7.539,11.1,20.263,18.395,34.693,18.395    c23.146,0,41.908-18.765,41.908-41.908C83.817,18.764,65.056,0,41.909,0C18.764,0,0.001,18.764,0.001,41.91    c0,8.445,2.507,16.302,6.805,22.882C6.794,64.732,6.769,64.676,6.769,64.611z" fill="#933EC5"/>
		<path d="M13.519,27.695c0,0.021-0.011,0.039-0.012,0.061l0.012,32.078c4.532-2.143,18.303-7.829,26.5-2.258V40.145    c-9.459-0.523-17-8.362-17-17.949c0-1.245,0.127-2.461,0.37-3.636c-4.952,1.153-9.495,2.853-9.884,3.724l0.002,5.352    C13.509,27.656,13.519,27.674,13.519,27.695z" fill="#933EC5"/>
		<path d="M41.019,38.195c8.822,0,16-7.178,16-16c0-8.822-7.178-16-16-16s-16,7.178-16,16    C25.019,31.017,32.197,38.195,41.019,38.195z M35.134,16.097c0-1.679,0.874-2.208,2.207-2.208h8.854    c1.104,0,1.907,0.322,1.907,1.518c0,1.196-0.805,1.518-1.907,1.518h-7.29v3.588h6.393c0.989,0,1.771,0.275,1.771,1.448    s-0.782,1.448-1.771,1.448h-6.393v4.002h7.474c1.104,0,1.909,0.322,1.909,1.518c0,1.196-0.805,1.518-1.909,1.518h-9.037    c-1.333,0-2.207-0.529-2.207-2.207L35.134,16.097L35.134,16.097z" fill="#933EC5"/>
		<path d="M42.019,40.145v17.182c8.195-5.57,21.966,0.116,26.5,2.258v-37.64c-0.377-0.79-4.959-2.499-9.938-3.651    c0.279,1.258,0.438,2.561,0.438,3.901C59.019,31.782,51.479,39.621,42.019,40.145z" fill="#933EC5"/>
	</g>
</g>
<g>
</g>
<g>
</g>
<g>
</g>
<g>
</g>
<g>
</g>
<g>
</g>
<g>
</g>
<g>
</g>
<g>
</g>
<g>
</g>
<g>
</g>
<g>
</g>
<g>
</g>
<g>
</g>
<g>
</g>
</svg>
